<svg xmlns="http://www.w3.org/2000/svg" viewBox="0 0 128 128">
  <defs>
    <linearGradient id="bg" x1="0%" y1="0%" x2="100%" y2="100%">
      <stop offset="0%" style="stop-color:#0095f6"/>
      <stop offset="100%" style="stop-color:#00376b"/>
    </linearGradient>
  </defs>
  <rect width="128" height="128" rx="24" fill="url(#bg)"/>
  <!-- Lucide School icon scaled & centered -->
  <g transform="translate(28, 24) scale(3)" fill="none" stroke="white" stroke-width="1.5" stroke-linecap="round" stroke-linejoin="round">
    <path d="M14 21v-3a2 2 0 0 0-4 0v3"/>
    <path d="M18 5v16"/>
    <path d="m4 6 7.106-3.79a2 2 0 0 1 1.788 0L20 6"/>
    <path d="m6 11-3.52 2.147a1 1 0 0 0-.48.854V19a2 2 0 0 0 2 2h16a2 2 0 0 0 2-2v-5a1 1 0 0 0-.48-.853L18 11"/>
    <path d="M6 5v16"/>
    <circle cx="12" cy="9" r="2"/>
  </g>
</svg>
